<?xml version="1.0" encoding="utf-8"?>
<!-- Generator: Adobe Illustrator 16.0.4, SVG Export Plug-In . SVG Version: 6.00 Build 0)  -->
<!DOCTYPE svg PUBLIC "-//W3C//DTD SVG 1.1//EN" "http://www.w3.org/Graphics/SVG/1.1/DTD/svg11.dtd">
<svg version="1.1" id="Layer_1" xmlns="http://www.w3.org/2000/svg" xmlns:xlink="http://www.w3.org/1999/xlink" x="0px" y="0px"
	 width="595.28px" height="841.89px" viewBox="0 0 595.28 841.89" enable-background="new 0 0 595.28 841.89" xml:space="preserve">
<g>
	<g>
		<path d="M302,481.89c-15.667,0-31.333,0-47,0c0.148-5.818,0.185-11.642,0.465-17.454c0.823-17.087,1.325-34.204,2.733-51.244
			c1.582-19.134,11.585-32.878,29.048-40.92c1.928-0.888,5.078-1.185,6.704-0.19c2.57,1.571,5.037,4.134,6.319,6.856
			c9.484,20.116,16.912,40.799,16.604,63.534c-0.178,13.136,0.07,26.278,0.127,39.418c-3.666,0-7.334,0-11,0
			c-0.638-8.256-1.31-16.509-1.9-24.768c-0.329-4.598-1.902-9.684-0.505-13.713c3.38-9.74,1.804-19.106-0.075-28.55
			c-0.661-3.32-2.701-6.365-4.111-9.536c-0.551,0.104-1.102,0.21-1.653,0.315c-0.564,2.5-1.643,5.009-1.599,7.498
			c0.146,8.263,0.874,16.515,1.048,24.777c0.271,12.804,0.248,25.613,0.422,38.42c0.013,0.988,0.592,1.969,0.909,2.952
			c1.059-0.448,2.115-0.897,3.246-1.377C301.854,479.24,301.928,480.565,302,481.89z"/>
		<path fill-rule="evenodd" clip-rule="evenodd" fill="#FFFFFF" d="M317,481.89c-0.057-13.14-0.305-26.282-0.127-39.418
			c0.309-22.735-7.119-43.418-16.604-63.534c-1.282-2.723-3.749-5.285-6.319-6.856c-1.626-0.994-4.776-0.697-6.704,0.19
			c-17.463,8.042-27.466,21.786-29.048,40.92c-1.409,17.04-1.911,34.157-2.733,51.244c-0.28,5.812-0.317,11.636-0.465,17.454
			c-2.996,0-5.991,0-8.99,0c-0.003-39.937-0.003-79.874-0.003-119.905c26.89,0,53.788,0,80.839,0c0,39.904,0,79.905,0,119.905
			C323.656,481.89,320.328,481.89,317,481.89z"/>
		<path fill-rule="evenodd" clip-rule="evenodd" fill="#FFFFFF" d="M302,481.89c-0.072-1.325-0.146-2.65-0.219-3.98
			c-1.131,0.479-2.188,0.929-3.246,1.377c-0.316-0.983-0.896-1.964-0.909-2.952c-0.174-12.807-0.151-25.616-0.422-38.42
			c-0.174-8.263-0.902-16.515-1.048-24.777c-0.044-2.489,1.035-4.998,1.599-7.498c0.551-0.105,1.102-0.211,1.653-0.315
			c1.41,3.171,3.45,6.216,4.111,9.536c1.879,9.443,3.455,18.81,0.075,28.55c-1.397,4.029,0.176,9.115,0.505,13.713
			c0.591,8.259,1.263,16.512,1.9,24.768C304.666,481.89,303.334,481.89,302,481.89z"/>
	</g>
</g>
</svg>
